<svg xmlns="http://www.w3.org/2000/svg" style="display: none;">
	<symbol id="settings" viewBox="0 0 24 24">
		<path d="M12 9c.552 0 1 .449 1 1s-.448 1-1 1-1-.449-1-1 .448-1 1-1zm0-2c-1.657 0-3 1.343-3 3s1.343 3 3 3 3-1.343 3-3-1.343-3-3-3zm-9 4c-1.657 0-3 1.343-3 3s1.343 3 3 3 3-1.343 3-3-1.343-3-3-3zm18 0c-1.657 0-3 1.343-3 3s1.343 3 3 3 3-1.343 3-3-1.343-3-3-3zm-9-6c.343 0 .677.035 1 .101v-3.101c0-.552-.447-1-1-1s-1 .448-1 1v3.101c.323-.066.657-.101 1-.101zm9 4c.343 0 .677.035 1 .101v-7.101c0-.552-.447-1-1-1s-1 .448-1 1v7.101c.323-.066.657-.101 1-.101zm0 10c-.343 0-.677-.035-1-.101v3.101c0 .552.447 1 1 1s1-.448 1-1v-3.101c-.323.066-.657.101-1 .101zm-18-10c.343 0 .677.035 1 .101v-7.101c0-.552-.447-1-1-1s-1 .448-1 1v7.101c.323-.066.657-.101 1-.101zm9 6c-.343 0-.677-.035-1-.101v7.101c0 .552.447 1 1 1s1-.448 1-1v-7.101c-.323.066-.657.101-1 .101zm-9 4c-.343 0-.677-.035-1-.101v3.101c0 .552.447 1 1 1s1-.448 1-1v-3.101c-.323.066-.657.101-1 .101z" />
	</symbol>
	<symbol id="undo" viewBox="0 0 24 24">
		<path d="M12 0c-3.31 0-6.291 1.353-8.459 3.522l-2.48-2.48-1.061 7.341 7.437-.966-2.489-2.488c1.808-1.808 4.299-2.929 7.052-2.929 5.514 0 10 4.486 10 10s-4.486 10-10 10c-3.872 0-7.229-2.216-8.89-5.443l-1.717 1.046c2.012 3.803 6.005 6.397 10.607 6.397 6.627 0 12-5.373 12-12s-5.373-12-12-12z" />
	</symbol>
</svg>
